Coordinates
version=1
nRows=13
nColumns=38
inDegrees=no

Units are S.I. units (second, meters, Newtons, ...)
If the header above contains a line with 'inDegrees', this indicates whether rotational values are in degrees (yes) or radians (no).

endheader
time	pelvis_tilt	pelvis_list	pelvis_rotation	pelvis_tx	pelvis_ty	pelvis_tz	hip_flexion_r	hip_adduction_r	hip_rotation_r	knee_angle_r	ankle_angle_r	subtalar_angle_r	mtp_angle_r	hip_flexion_l	hip_adduction_l	hip_rotation_l	knee_angle_l	ankle_angle_l	subtalar_angle_l	mtp_angle_l	lumbar_extension	lumbar_bending	lumbar_rotation	arm_flex_r	arm_add_r	arm_rot_r	elbow_flex_r	pro_sup_r	wrist_flex_r	wrist_dev_r	arm_flex_l	arm_add_l	arm_rot_l	elbow_flex_l	pro_sup_l	wrist_flex_l	wrist_dev_l
1.11	0.484299	1.50044	-1.97301	1.06279	0.598262	0.916958	0.366592	-0.0952985	-0.353903	0.0501069	0.111224	0	0	-0.343515	0.0597609	-0.154106	0.134096	0.30121	0	0	-0.216358	-0.0423233	-0.250834	-0.21144	-0.204237	0.121025	0.811327	0.418611	0	0	0.195632	-0.491041	0.280071	0.769229	1.29581	0	0
1.12	0.446149	1.49891	-1.92989	1.06259	0.586408	0.915461	0.36794	-0.0932692	-0.370598	0.0755689	0.116334	0	0	-0.350182	0.0511769	-0.161917	0.155579	0.313765	0	0	-0.219072	-0.0380291	-0.254546	-0.212292	-0.204735	0.118438	0.81504	0.419364	0	0	0.195411	-0.489242	0.276449	0.770828	1.2969	0	0
1.13	0.40741	1.49692	-1.88622	1.06249	0.574273	0.914127	0.369983	-0.0930163	-0.385795	0.111847	0.124401	0	0	-0.357241	0.0425595	-0.168538	0.177127	0.323748	0	0	-0.221707	-0.0332305	-0.258451	-0.213643	-0.205889	0.116286	0.818287	0.420484	0	0	0.19315	-0.486497	0.271351	0.772529	1.29804	0	0
1.14	0.371798	1.49483	-1.84526	1.06244	0.561818	0.912939	0.36962	-0.0927187	-0.393312	0.147372	0.132582	0	0	-0.364041	0.033586	-0.173707	0.199354	0.330253	0	0	-0.223806	-0.0280878	-0.263441	-0.215329	-0.207509	0.114822	0.821206	0.421965	0	0	0.1882	-0.483296	0.264794	0.774528	1.29901	0	0
1.15	0.332829	1.49286	-1.80085	1.0623	0.549047	0.911925	0.366641	-0.0905285	-0.394947	0.176889	0.13944	0	0	-0.369855	0.0233598	-0.17936	0.223549	0.33447	0	0	-0.225149	-0.0223441	-0.268391	-0.217926	-0.20929	0.113614	0.824006	0.423225	0	0	0.181576	-0.4795	0.258135	0.775221	1.29981	0	0
1.16	0.287637	1.49138	-1.75063	1.06201	0.536089	0.911114	0.362799	-0.0862148	-0.392186	0.199026	0.139371	0	0	-0.373557	0.0114945	-0.186709	0.250957	0.336718	0	0	-0.225502	-0.0158395	-0.272731	-0.220731	-0.211082	0.112574	0.825995	0.423444	0	0	0.173676	-0.47497	0.251123	0.774849	1.30047	0	0
1.17	0.235327	1.49051	-1.69397	1.06151	0.523007	0.910556	0.358241	-0.0796456	-0.385073	0.212315	0.124887	0	0	-0.374535	-0.00218996	-0.195771	0.282228	0.336303	0	0	-0.22474	-0.00869762	-0.27643	-0.222992	-0.212842	0.112297	0.826156	0.422443	0	0	0.164671	-0.469704	0.243546	0.773047	1.30135	0	0
1.18	0.18213	1.49043	-1.63736	1.06078	0.509789	0.910197	0.352846	-0.0717518	-0.37665	0.218886	0.0967707	0	0	-0.371726	-0.0170875	-0.205635	0.318618	0.332867	0	0	-0.222826	-0.00147104	-0.27943	-0.224997	-0.214642	0.113058	0.824769	0.42101	0	0	0.154339	-0.464142	0.235683	0.770453	1.30228	0	0
1.19	0.129528	1.49129	-1.5819	1.05984	0.496411	0.909943	0.347559	-0.0643244	-0.371802	0.22562	0.0676644	0	0	-0.364051	-0.03314	-0.215143	0.361431	0.325654	0	0	-0.219272	0.00547786	-0.281622	-0.227528	-0.216381	0.114232	0.822576	0.419059	0	0	0.143203	-0.45833	0.228695	0.766755	1.30315	0	0
1.2	0.0764329	1.49287	-1.52608	1.05876	0.48289	0.909757	0.344	-0.0587364	-0.371464	0.2384	0.0476773	0	0	-0.351286	-0.050411	-0.222756	0.410982	0.313237	0	0	-0.214101	0.0119801	-0.283155	-0.230583	-0.218139	0.115586	0.819785	0.41715	0	0	0.13154	-0.45239	0.223431	0.762031	1.30399	0	0
1.21	0.0192446	1.49405	-1.46582	1.05768	0.469254	0.909767	0.342231	-0.055284	-0.375143	0.259636	0.0374518	0	0	-0.3345	-0.0688763	-0.226568	0.466253	0.293656	0	0	-0.20852	0.0185857	-0.284615	-0.233752	-0.220139	0.117256	0.816404	0.415775	0	0	0.119562	-0.446191	0.220046	0.756252	1.30487	0	0
1.22	-0.0552472	1.49435	-1.38858	1.05663	0.455694	0.910029	0.341826	-0.0518697	-0.378779	0.287244	0.0351866	0	0	-0.313414	-0.0893404	-0.227104	0.527225	0.264547	0	0	-0.203456	0.0267945	-0.285682	-0.236322	-0.222706	0.119242	0.813239	0.413422	0	0	0.107535	-0.439611	0.218199	0.749874	1.30538	0	0
1.23	-0.160348	1.49459	-1.28205	1.05547	0.442413	0.910413	0.342945	-0.045989	-0.379816	0.31639	0.0385924	0	0	-0.286351	-0.112229	-0.224939	0.593392	0.22498	0	0	-0.197775	0.037235	-0.284807	-0.238287	-0.225861	0.121099	0.810572	0.408385	0	0	0.096379	-0.432061	0.217587	0.742242	1.30577	0	0
